<?xml version="1.0" encoding="UTF-8"?>
<svg version="1.1" xmlns="http://www.w3.org/2000/svg" width="98" height="97">
<path d="M0 0 C0.99 0.33 1.98 0.66 3 1 C5.08090369 1.17715802 7.16495039 1.31870066 9.25 1.4375 C14.16858226 1.78180076 18.34229118 2.44743039 23 4 C23.86625 4.144375 24.7325 4.28875 25.625 4.4375 C28.53008804 5.12554717 30.45667341 6.42573127 33 8 C34.56234375 8.92425781 34.56234375 8.92425781 36.15625 9.8671875 C37.2596875 10.52976562 38.363125 11.19234375 39.5 11.875 C40.6034375 12.53242188 41.706875 13.18984375 42.84375 13.8671875 C50.49857332 19.03987751 50.49857332 19.03987751 51.6875 23.6875 C50.40700786 29.85714395 46.45124978 34.82312533 43 40 C42.83333333 43 42.83333333 43 43 46 C43 46.99 43 47.98 43 49 C36.6 49.49230769 36.6 49.49230769 33.5625 47 C33.046875 46.34 32.53125 45.68 32 45 C29.04366521 50.60800912 26.68354584 55.86708302 25 62 C23.88481471 64.88636194 23.04803132 66.49263799 20.21777344 67.86279297 C14.15950132 69.96806297 8.69937643 70.45741131 2.3125 70.375 C1.40177734 70.38660156 0.49105469 70.39820312 -0.44726562 70.41015625 C-5.68152189 70.38734903 -9.52265703 70.01593823 -14 67 C-15.375 64.3125 -15.375 64.3125 -16 62 C-17.65 62.66 -19.3 63.32 -21 64 C-21 63.34 -21 62.68 -21 62 C-20.34 62 -19.68 62 -19 62 C-17.78059917 58.3417975 -18.36290096 57.41551324 -19.8125 53.9375 C-20.16957031 53.05964844 -20.52664062 52.18179688 -20.89453125 51.27734375 C-21.90752064 48.87425575 -21.90752064 48.87425575 -24 47 C-24.53625 47.350625 -25.0725 47.70125 -25.625 48.0625 C-28.73274763 49.28924249 -30.79431703 48.72856431 -34 48 C-34.09796875 47.33613281 -34.1959375 46.67226562 -34.296875 45.98828125 C-35.23054753 40.47478399 -36.21335616 37.24563097 -40 33 C-42.76993121 27.84219705 -43.28423834 24.72069804 -42 19 C-41.34 19 -40.68 19 -40 19 C-40 18.34 -40 17.68 -40 17 C-38.68 16.67 -37.36 16.34 -36 16 C-36 15.34 -36 14.68 -36 14 C-35.01 13.34 -34.02 12.68 -33 12 C-32.67 11.34 -32.34 10.68 -32 10 C-30 10 -28 10 -26 10 C-26 9.34 -26 8.68 -26 8 C-18.10815338 3.39642281 -9.07790666 1.47627462 0 2 C0 1.34 0 0.68 0 0 Z M2 7 C0.58422523 8.18424326 0.58422523 8.18424326 0.9375 11.5625 C0.958125 12.696875 0.97875 13.83125 1 15 C3.07320645 15.20823168 3.07320645 15.20823168 4.5625 13.75 C6.14533111 11.82307517 6.5806825 10.43204149 7 8 C5.34385343 7.61781233 3.67542976 7.28604898 2 7 Z M5 13 C4.67 14.98 4.34 16.96 4 19 C3.67 18.01 3.34 17.02 3 16 C2.67 16 2.34 16 2 16 C2.04640625 16.556875 2.0928125 17.11375 2.140625 17.6875 C2.42609082 23.72306311 1.49392275 28.01772949 -2 33 C-3.07708804 34.08994112 -4.18128295 35.15384713 -5.3125 36.1875 C-6.199375 37.115625 -7.08625 38.04375 -8 39 C-8.04097782 41.81416116 -8.04097782 41.81416116 -7 44 C-8.32 44.33 -9.64 44.66 -11 45 C-11 45.66 -11 46.32 -11 47 C-10.34 47 -9.68 47 -9 47 C-9 47.66 -9 48.32 -9 49 C-9.99 49.495 -9.99 49.495 -11 50 C-11 50.66 -11 51.32 -11 52 C-9.68 52 -8.36 52 -7 52 C-6.67 52.66 -6.34 53.32 -6 54 C-5.34 50.7 -4.68 47.4 -4 44 C-0.57767028 42.85922343 2.08673217 42.90184883 5.6875 42.9375 C7.45673828 42.95103516 7.45673828 42.95103516 9.26171875 42.96484375 C10.16535156 42.97644531 11.06898437 42.98804687 12 43 C12.33 45.31 12.66 47.62 13 50 C14.98 50 16.96 50 19 50 C19.74304413 45.24451757 17.73243053 42.43931262 15.2890625 38.57421875 C14.86367188 38.05472656 14.43828125 37.53523438 14 37 C13.34 37 12.68 37 12 37 C11.71125 36.401875 11.4225 35.80375 11.125 35.1875 C9.04797494 31.02297418 9.04797494 31.02297418 5 29 C5.66 29 6.32 29 7 29 C6.67 23.72 6.34 18.44 6 13 C5.67 13 5.34 13 5 13 Z M9 53.25 C6.7855624 55.72812376 6.7855624 55.72812376 7 58.1875 C8.00322742 60.33477942 8.00322742 60.33477942 11 62 C13.54230847 62.41679297 13.54230847 62.41679297 16 62 C16.66 61.01 17.32 60.02 18 59 C17.34 59 16.68 59 16 59 C16 58.34 16 57.68 16 57 C16.99 57.33 17.98 57.66 19 58 C19 55.69 19 53.38 19 51 C14.56322479 50.56502204 12.63336334 50.52497749 9 53.25 Z M-5 52 C-4.67 52.99 -4.34 53.98 -4 55 C-4 54.01 -4 53.02 -4 52 C-4.33 52 -4.66 52 -5 52 Z M-6 55 C-5.95875 55.78375 -5.9175 56.5675 -5.875 57.375 C-6 60 -6 60 -8 62 C-4.535 61.505 -4.535 61.505 -1 61 C-0.67 59.35 -0.34 57.7 0 56 C-2.07553648 55.4465236 -3.84365964 55 -6 55 Z M-11 57 C-10.67 57.99 -10.34 58.98 -10 60 C-9.67 59.01 -9.34 58.02 -9 57 C-9.66 57 -10.32 57 -11 57 Z " fill="#040404" transform="translate(46,19)"/>
<path d="M0 0 C3.375 -0.125 3.375 -0.125 7 0 C9 2 9 2 9.16357422 3.96777344 C9.1276416 4.75700195 9.09170898 5.54623047 9.0546875 6.359375 C9.03019531 7.22820313 9.00570312 8.09703125 8.98046875 8.9921875 C8.91074078 10.81544467 8.83275588 12.63840674 8.74609375 14.4609375 C8.60101506 20.24701702 9.12777568 23.40173362 13 28 C13.53882813 28.68707031 14.07765625 29.37414062 14.6328125 30.08203125 C15.12523437 30.65308594 15.61765625 31.22414063 16.125 31.8125 C16.62257812 32.39644531 17.12015625 32.98039062 17.6328125 33.58203125 C18.96504534 35.1214683 18.96504534 35.1214683 21 36 C21.4140625 38.72265625 21.4140625 38.72265625 21.625 42.0625 C21.69976562 43.16722656 21.77453125 44.27195313 21.8515625 45.41015625 C21.90054688 46.26480469 21.94953125 47.11945313 22 48 C26.20494799 46.17063087 27.24509446 44.26191346 29 40 C29.69907414 37.26427415 29.69907414 37.26427415 30 35 C30.99 35.33 31.98 35.66 33 36 C34.1875 38.5625 34.1875 38.5625 35 41 C34.34 41 33.68 41 33 41 C32.67 40.34 32.34 39.68 32 39 C29.04366521 44.60800912 26.68354584 49.86708302 25 56 C23.88481471 58.88636194 23.04803132 60.49263799 20.21777344 61.86279297 C14.15950132 63.96806297 8.69937643 64.45741131 2.3125 64.375 C1.40177734 64.38660156 0.49105469 64.39820312 -0.44726562 64.41015625 C-5.68152189 64.38734903 -9.52265703 64.01593823 -14 61 C-15.375 58.3125 -15.375 58.3125 -16 56 C-17.65 56.66 -19.3 57.32 -21 58 C-21 57.34 -21 56.68 -21 56 C-20.34 56 -19.68 56 -19 56 C-17.90101298 52.70303895 -18.12875556 51.59505097 -18.9375 48.3125 C-19.13214844 47.50425781 -19.32679687 46.69601563 -19.52734375 45.86328125 C-19.68332031 45.24839844 -19.83929687 44.63351563 -20 44 C-18.5 45.375 -18.5 45.375 -17 47 C-17 47.66 -17 48.32 -17 49 C-16.34 49 -15.68 49 -15 49 C-14.67 46.03 -14.34 43.06 -14 40 C-13.34 40 -12.68 40 -12 40 C-11.9278125 39.29101562 -11.855625 38.58203125 -11.78125 37.8515625 C-10.77785646 34.18917609 -8.98409145 32.22856074 -6.5 29.375 C-2.83241578 25.1387081 -0.84608716 22.54259616 -0.9375 16.875 C-0.94523437 16.08609375 -0.95296875 15.2971875 -0.9609375 14.484375 C-0.97382812 13.66453125 -0.98671875 12.8446875 -1 12 C-1.02554926 10.3750673 -1.04656808 8.75005545 -1.0625 7.125 C-1.07410156 6.40570312 -1.08570312 5.68640625 -1.09765625 4.9453125 C-1 3 -1 3 0 0 Z M2 1 C0.58422523 2.18424326 0.58422523 2.18424326 0.9375 5.5625 C0.958125 6.696875 0.97875 7.83125 1 9 C3.07320645 9.20823168 3.07320645 9.20823168 4.5625 7.75 C6.14533111 5.82307517 6.5806825 4.43204149 7 2 C5.34385343 1.61781233 3.67542976 1.28604898 2 1 Z M5 7 C4.67 8.98 4.34 10.96 4 13 C3.67 12.01 3.34 11.02 3 10 C2.67 10 2.34 10 2 10 C2.04640625 10.556875 2.0928125 11.11375 2.140625 11.6875 C2.42609082 17.72306311 1.49392275 22.01772949 -2 27 C-3.07708804 28.08994112 -4.18128295 29.15384713 -5.3125 30.1875 C-6.199375 31.115625 -7.08625 32.04375 -8 33 C-8.04097782 35.81416116 -8.04097782 35.81416116 -7 38 C-8.32 38.33 -9.64 38.66 -11 39 C-11 39.66 -11 40.32 -11 41 C-10.34 41 -9.68 41 -9 41 C-9 41.66 -9 42.32 -9 43 C-9.99 43.495 -9.99 43.495 -11 44 C-11 44.66 -11 45.32 -11 46 C-9.68 46 -8.36 46 -7 46 C-6.67 46.66 -6.34 47.32 -6 48 C-5.34 44.7 -4.68 41.4 -4 38 C-0.57767028 36.85922343 2.08673217 36.90184883 5.6875 36.9375 C7.45673828 36.95103516 7.45673828 36.95103516 9.26171875 36.96484375 C10.16535156 36.97644531 11.06898437 36.98804687 12 37 C12.33 39.31 12.66 41.62 13 44 C14.98 44 16.96 44 19 44 C19.74304413 39.24451757 17.73243053 36.43931262 15.2890625 32.57421875 C14.86367188 32.05472656 14.43828125 31.53523438 14 31 C13.34 31 12.68 31 12 31 C11.71125 30.401875 11.4225 29.80375 11.125 29.1875 C9.04797494 25.02297418 9.04797494 25.02297418 5 23 C5.66 23 6.32 23 7 23 C6.67 17.72 6.34 12.44 6 7 C5.67 7 5.34 7 5 7 Z M9 47.25 C6.7855624 49.72812376 6.7855624 49.72812376 7 52.1875 C8.00322742 54.33477942 8.00322742 54.33477942 11 56 C13.54230847 56.41679297 13.54230847 56.41679297 16 56 C16.66 55.01 17.32 54.02 18 53 C17.34 53 16.68 53 16 53 C16 52.34 16 51.68 16 51 C16.99 51.33 17.98 51.66 19 52 C19 49.69 19 47.38 19 45 C14.56322479 44.56502204 12.63336334 44.52497749 9 47.25 Z M-5 46 C-4.67 46.99 -4.34 47.98 -4 49 C-4 48.01 -4 47.02 -4 46 C-4.33 46 -4.66 46 -5 46 Z M-6 49 C-5.95875 49.78375 -5.9175 50.5675 -5.875 51.375 C-6 54 -6 54 -8 56 C-4.535 55.505 -4.535 55.505 -1 55 C-0.67 53.35 -0.34 51.7 0 50 C-2.07553648 49.4465236 -3.84365964 49 -6 49 Z M-11 51 C-10.67 51.99 -10.34 52.98 -10 54 C-9.67 53.01 -9.34 52.02 -9 51 C-9.66 51 -10.32 51 -11 51 Z " fill="#292A2A" transform="translate(46,25)"/>
<path d="M0 0 C3.375 -0.125 3.375 -0.125 7 0 C9 2 9 2 9.16357422 3.96777344 C9.1276416 4.75700195 9.09170898 5.54623047 9.0546875 6.359375 C9.03019531 7.22820313 9.00570312 8.09703125 8.98046875 8.9921875 C8.91074078 10.81544467 8.83275588 12.63840674 8.74609375 14.4609375 C8.60110375 20.24347989 9.12135283 23.40923045 13 28 C13.82564453 29.01320313 13.82564453 29.01320313 14.66796875 30.046875 C15.42013672 30.88992187 15.42013672 30.88992187 16.1875 31.75 C20.01390459 36.0510725 20.20982076 39.19968247 20.25 44.875 C20.270625 45.59558594 20.29125 46.31617188 20.3125 47.05859375 C20.3358503 50.22839728 20.18346532 52.62603555 18.77734375 55.4921875 C16.483667 57.43803195 15.28021051 57.42204119 12.3125 57.25 C11.50425781 57.21390625 10.69601563 57.1778125 9.86328125 57.140625 C9.24839844 57.09421875 8.63351563 57.0478125 8 57 C7.67 55.68 7.34 54.36 7 53 C7.556875 53.33 8.11375 53.66 8.6875 54 C11.30284522 55.1309601 13.1806646 55.15662974 16 55 C16 53.68 16 52.36 16 51 C16.66 51 17.32 51 18 51 C18 49.35 18 47.7 18 46 C16.02 46.495 16.02 46.495 14 47 C14 46.34 14 45.68 14 45 C13.34 45 12.68 45 12 45 C11.34 46.32 10.68 47.64 10 49 C9.34 48.67 8.68 48.34 8 48 C8.66 47.01 9.32 46.02 10 45 C10.25030977 42.41619823 10.25030977 42.41619823 10 40 C8.94021067 38.71387324 8.94021067 38.71387324 6.49609375 38.90234375 C5.48675781 38.91394531 4.47742188 38.92554688 3.4375 38.9375 C2.42558594 38.94652344 1.41367187 38.95554688 0.37109375 38.96484375 C-0.41136719 38.97644531 -1.19382812 38.98804688 -2 39 C-2.99030231 43.12048864 -2.87125129 45.14742381 -1 49 C-2.485 49.495 -2.485 49.495 -4 50 C-4.66 49.67 -5.32 49.34 -6 49 C-5.67 50.98 -5.34 52.96 -5 55 C-3.68 55 -2.36 55 -1 55 C-1 55.66 -1 56.32 -1 57 C-3.84083641 58.42041821 -5.85477278 58.31452272 -9 58 C-12.01897394 55.77119072 -12.90510692 54.5665675 -13.53125 50.828125 C-13.43211454 39.47711533 -11.21170037 33.91513551 -3.48828125 25.76171875 C-1.10197248 22.93698055 -0.88024099 20.42505844 -0.9375 16.875 C-0.94523437 16.08609375 -0.95296875 15.2971875 -0.9609375 14.484375 C-0.97382812 13.66453125 -0.98671875 12.8446875 -1 12 C-1.02554926 10.3750673 -1.04656808 8.75005545 -1.0625 7.125 C-1.07410156 6.40570312 -1.08570313 5.68640625 -1.09765625 4.9453125 C-1 3 -1 3 0 0 Z M2 1 C0.58422523 2.18424326 0.58422523 2.18424326 0.9375 5.5625 C0.958125 6.696875 0.97875 7.83125 1 9 C3.07320645 9.20823168 3.07320645 9.20823168 4.5625 7.75 C6.14533111 5.82307517 6.5806825 4.43204149 7 2 C5.34385343 1.61781233 3.67542976 1.28604898 2 1 Z M5 7 C4.67 8.98 4.34 10.96 4 13 C3.67 12.01 3.34 11.02 3 10 C2.67 10 2.34 10 2 10 C2.04640625 10.556875 2.0928125 11.11375 2.140625 11.6875 C2.42609082 17.72306311 1.49392275 22.01772949 -2 27 C-3.07708804 28.08994112 -4.18128295 29.15384713 -5.3125 30.1875 C-6.199375 31.115625 -7.08625 32.04375 -8 33 C-8.04097782 35.81416116 -8.04097782 35.81416116 -7 38 C-8.32 38.33 -9.64 38.66 -11 39 C-11 39.66 -11 40.32 -11 41 C-10.34 41 -9.68 41 -9 41 C-9 41.66 -9 42.32 -9 43 C-9.99 43.495 -9.99 43.495 -11 44 C-11 44.66 -11 45.32 -11 46 C-9.68 46 -8.36 46 -7 46 C-6.67 46.66 -6.34 47.32 -6 48 C-5.34 44.7 -4.68 41.4 -4 38 C-0.57767028 36.85922343 2.08673217 36.90184883 5.6875 36.9375 C7.45673828 36.95103516 7.45673828 36.95103516 9.26171875 36.96484375 C10.16535156 36.97644531 11.06898437 36.98804687 12 37 C12.33 39.31 12.66 41.62 13 44 C14.98 44 16.96 44 19 44 C19.74304413 39.24451757 17.73243053 36.43931262 15.2890625 32.57421875 C14.86367188 32.05472656 14.43828125 31.53523438 14 31 C13.34 31 12.68 31 12 31 C11.71125 30.401875 11.4225 29.80375 11.125 29.1875 C9.04797494 25.02297418 9.04797494 25.02297418 5 23 C5.66 23 6.32 23 7 23 C6.67 17.72 6.34 12.44 6 7 C5.67 7 5.34 7 5 7 Z M-5 46 C-4.67 46.99 -4.34 47.98 -4 49 C-4 48.01 -4 47.02 -4 46 C-4.33 46 -4.66 46 -5 46 Z M-11 51 C-10.67 51.99 -10.34 52.98 -10 54 C-9.67 53.01 -9.34 52.02 -9 51 C-9.66 51 -10.32 51 -11 51 Z " fill="#DBDEDE" transform="translate(46,25)"/>
<path d="M0 0 C3.375 -0.125 3.375 -0.125 7 0 C9 2 9 2 9.13525391 3.87939453 C9.08288574 4.62302246 9.03051758 5.36665039 8.9765625 6.1328125 C8.925 6.93847656 8.8734375 7.74414062 8.8203125 8.57421875 C8.75585938 9.41597656 8.69140625 10.25773437 8.625 11.125 C8.56828125 11.97449219 8.5115625 12.82398438 8.453125 13.69921875 C8.31149023 15.8001345 8.15695674 17.90017334 8 20 C7.67 20 7.34 20 7 20 C6.67 14.06 6.34 8.12 6 2 C4.68 2 3.36 2 2 2 C2.00636475 2.62455078 2.01272949 3.24910156 2.01928711 3.89257812 C2.02805102 6.76289239 1.98314161 9.63005551 1.9375 12.5 C1.94845703 13.48226562 1.95941406 14.46453125 1.97070312 15.4765625 C1.84098361 21.03597015 1.30811742 24.27663178 -2.49609375 28.46875 C-3.12572021 29.06107422 -3.75534668 29.65339844 -4.40405273 30.26367188 C-6.64072496 32.69708367 -7 34.76056457 -7 38 C-8.485 38.495 -8.485 38.495 -10 39 C-10.33 39.66 -10.66 40.32 -11 41 C-10.34 41 -9.68 41 -9 41 C-8.67 41.99 -8.34 42.98 -8 44 C-8.99 44 -9.98 44 -11 44 C-11 44.66 -11 45.32 -11 46 C-9.02 46 -7.04 46 -5 46 C-4.67 46.99 -4.34 47.98 -4 49 C-4.66 49 -5.32 49 -6 49 C-5.67 50.98 -5.34 52.96 -5 55 C-3.68 55 -2.36 55 -1 55 C-1 55.66 -1 56.32 -1 57 C-3.84083641 58.42041821 -5.85477278 58.31452272 -9 58 C-12.01897394 55.77119072 -12.90510692 54.5665675 -13.53125 50.828125 C-13.43211454 39.47711533 -11.21170037 33.91513551 -3.48828125 25.76171875 C-1.10197248 22.93698055 -0.88024099 20.42505844 -0.9375 16.875 C-0.94523437 16.08609375 -0.95296875 15.2971875 -0.9609375 14.484375 C-0.97382812 13.66453125 -0.98671875 12.8446875 -1 12 C-1.02554926 10.3750673 -1.04656808 8.75005545 -1.0625 7.125 C-1.07410156 6.40570312 -1.08570313 5.68640625 -1.09765625 4.9453125 C-1 3 -1 3 0 0 Z M-11 51 C-10.67 51.99 -10.34 52.98 -10 54 C-9.67 53.01 -9.34 52.02 -9 51 C-9.66 51 -10.32 51 -11 51 Z " fill="#A3A5A5" transform="translate(46,25)"/>
<path d="M0 0 C1.67542976 0.28604898 3.34385343 0.61781233 5 1 C2.375 4.875 2.375 4.875 -1 6 C-2.02297922 6.97648017 -3.01904252 7.98131338 -4 9 C-4.86625 9.639375 -5.7325 10.27875 -6.625 10.9375 C-9.05211466 13.04525746 -9.66579964 13.88079662 -10 17 C-9.34 17 -8.68 17 -8 17 C-8 18.98 -8 20.96 -8 23 C-7.34 23 -6.68 23 -6 23 C-2.67049497 26.80514861 -0.65999137 29.29338698 -0.6875 34.4375 C-0.790625 35.613125 -0.89375 36.78875 -1 38 C2.98608812 36.70721467 4.62111287 35.39841019 7 32 C7.66 32 8.32 32 9 32 C9.66 34.97 10.32 37.94 11 41 C9.68 40.01 8.36 39.02 7 38 C6.46375 38.350625 5.9275 38.70125 5.375 39.0625 C2.26725237 40.28924249 0.20568297 39.72856431 -3 39 C-3.09796875 38.33613281 -3.1959375 37.67226562 -3.296875 36.98828125 C-4.23054753 31.47478399 -5.21335616 28.24563097 -9 24 C-11.76993121 18.84219705 -12.28423834 15.72069804 -11 10 C-10.34 10 -9.68 10 -9 10 C-9 9.34 -9 8.68 -9 8 C-7.68 7.67 -6.36 7.34 -5 7 C-5 6.34 -5 5.68 -5 5 C-4.01 4.34 -3.02 3.68 -2 3 C-1.67 2.34 -1.34 1.68 -1 1 C-0.67 0.67 -0.34 0.34 0 0 Z " fill="#B2B4B5" transform="translate(15,28)"/>
<path d="M0 0 C0.99 0.33 1.98 0.66 3 1 C5.08090369 1.17715802 7.16495039 1.31870066 9.25 1.4375 C14.16858226 1.78180076 18.34229118 2.44743039 23 4 C24.66246041 4.35371498 26.32774271 4.69595322 28 5 C28 5.33 28 5.66 28 6 C26.741875 6.020625 25.48375 6.04125 24.1875 6.0625 C23.47980469 6.07410156 22.77210937 6.08570313 22.04296875 6.09765625 C20 6 20 6 17 5 C14.78910055 4.91641042 12.57573922 4.89268236 10.36328125 4.90234375 C9.06455078 4.90556641 7.76582031 4.90878906 6.42773438 4.91210938 C5.05598892 4.92046469 3.68424413 4.92892963 2.3125 4.9375 C0.92903805 4.94251665 -0.45442563 4.94707927 -1.83789062 4.95117188 C-5.22530395 4.96297471 -8.61263033 4.97943981 -12 5 C-12 5.66 -12 6.32 -12 7 C-12.75925781 7.13277344 -13.51851562 7.26554687 -14.30078125 7.40234375 C-15.29464844 7.57894531 -16.28851563 7.75554688 -17.3125 7.9375 C-18.29863281 8.11152344 -19.28476562 8.28554688 -20.30078125 8.46484375 C-23.08189213 8.95746847 -23.08189213 8.95746847 -26 10 C-26 9.34 -26 8.68 -26 8 C-18.10815338 3.39642281 -9.07790666 1.47627462 0 2 C0 1.34 0 0.68 0 0 Z " fill="#959696" transform="translate(46,19)"/>
<path d="M0 0 C3.15353929 0.84094381 5.46501019 1.50067618 7.875 3.75 C9.47475556 6.94951113 9.59684824 8.41891055 9 12 C6.67575829 16.55608238 3.83325318 20.75012023 1 25 C0.83333333 28 0.83333333 28 1 31 C1 31.99 1 32.98 1 34 C-1.31 34 -3.62 34 -6 34 C-6.33 33.34 -6.66 32.68 -7 32 C-5.35 32 -3.7 32 -2 32 C-2.144375 30.88625 -2.28875 29.7725 -2.4375 28.625 C-2.50257045 22.55175817 1.44667652 18.58438377 5 14 C6.462958 11.074084 6.44523109 9.24382653 6 6 C4.17046753 3.99444837 2.21241772 2.61322125 0 1 C0 0.67 0 0.34 0 0 Z " fill="#BCBEBE" transform="translate(88,34)"/>
<path d="M0 0 C0.66 0 1.32 0 2 0 C1.7434082 1.89208984 1.7434082 1.89208984 1 4 C-4.83430036 7.56713758 -12.07395288 7.46033609 -18.6875 7.375 C-20.05358398 7.39240234 -20.05358398 7.39240234 -21.44726562 7.41015625 C-26.66238925 7.3874324 -30.56258676 7.0538579 -35 4 C-35.33 3.01 -35.66 2.02 -36 1 C-35.154375 1.309375 -34.30875 1.61875 -33.4375 1.9375 C-23.38735603 5.04390814 -11.06733999 5.4190966 -1 2 C-0.67 1.34 -0.34 0.68 0 0 Z " fill="#BDBFC1" transform="translate(67,82)"/>
<path d="M0 0 C0.99 0 1.98 0 3 0 C3.33 0.99 3.66 1.98 4 3 C3.01 3 2.02 3 1 3 C1 3.66 1 4.32 1 5 C2.98 5 4.96 5 7 5 C7.33 5.99 7.66 6.98 8 8 C7.34 8 6.68 8 6 8 C6.33 9.98 6.66 11.96 7 14 C5.68 13.67 4.36 13.34 3 13 C3 12.01 3 11.02 3 10 C2.34 10 1.68 10 1 10 C0.67 10.66 0.34 11.32 0 12 C0 8.04 0 4.08 0 0 Z " fill="#EBEEED" transform="translate(34,66)"/>
<path d="M0 0 C0.7528125 0.00644531 1.505625 0.01289062 2.28125 0.01953125 C4.45990143 0.18446437 6.40204811 0.59149094 8.5 1.1875 C8.5 3.4975 8.5 5.8075 8.5 8.1875 C8.0359375 7.2284375 8.0359375 7.2284375 7.5625 6.25 C6.6654837 4.25139179 6.6654837 4.25139179 5.5 3.1875 C3.64712498 3.11523498 1.79166122 3.1036878 -0.0625 3.125 C-1.07441406 3.13402344 -2.08632813 3.14304688 -3.12890625 3.15234375 C-3.91136719 3.16394531 -4.69382813 3.17554688 -5.5 3.1875 C-6.49030231 7.30798864 -6.37125129 9.33492381 -4.5 13.1875 C-5.49 13.1875 -6.48 13.1875 -7.5 13.1875 C-8.78317892 9.33796324 -8.56643637 6.24011865 -8.5 2.1875 C-5.52923913 0.4793125 -3.41851451 -0.06438983 0 0 Z " fill="#CACDCC" transform="translate(49.5,60.8125)"/>
<path d="M0 0 C0.99 0.33 1.98 0.66 3 1 C4.1875 3.5625 4.1875 3.5625 5 6 C4.34 6 3.68 6 3 6 C2.67 5.34 2.34 4.68 2 4 C-1.654738 10.80142845 -1.654738 10.80142845 -4.1875 18.0625 C-4.455625 19.031875 -4.72375 20.00125 -5 21 C-5.66 21.33 -6.32 21.66 -7 22 C-5.54259306 12.46932569 -5.54259306 12.46932569 -2.9375 8.1875 C-1.16623024 5.27347556 -0.40443856 3.33661816 0 0 Z " fill="#C1C2C3" transform="translate(76,60)"/>
<path d="M0 0 C0.99 0.33 1.98 0.66 3 1 C3 2.65 3 4.3 3 6 C0.29120665 7.35439668 -2.00933268 7.06501451 -5 7 C-3.75023244 3.34683329 -3.32901247 2.21934164 0 0 Z " fill="#EFF5F5" transform="translate(93,72)"/>
<path d="M0 0 C0.66 0 1.32 0 2 0 C2.66 2.97 3.32 5.94 4 9 C2.68 8.01 1.36 7.02 0 6 C-0.5775 6.350625 -1.155 6.70125 -1.75 7.0625 C-4.35801776 8.14917407 -5.39417629 7.93065133 -8 7 C-7.236875 6.5875 -6.47375 6.175 -5.6875 5.75 C-3.04673684 4.03043329 -1.81616784 2.50804131 0 0 Z " fill="#BCBEBD" transform="translate(22,60)"/>
<path d="M0 0 C10.51535088 10.21491228 10.51535088 10.21491228 11 17 C8.85715831 15.16327855 7.8616015 13.71062131 6.625 11.125 C5.12285742 7.8530939 5.12285742 7.8530939 2.3125 5.3125 C1.549375 4.549375 0.78625 3.78625 0 3 C0 2.01 0 1.02 0 0 Z " fill="#B7B8B9" transform="translate(55,49)"/>
<path d="M0 0 C1.67542976 0.28604898 3.34385343 0.61781233 5 1 C3.10595266 4.34243648 2.05908409 4.97997149 -1.6875 6.25 C-3.3271875 6.62125 -3.3271875 6.62125 -5 7 C-5 6.34 -5 5.68 -5 5 C-4.01 4.34 -3.02 3.68 -2 3 C-1.67 2.34 -1.34 1.68 -1 1 C-0.67 0.67 -0.34 0.34 0 0 Z " fill="#CED1D2" transform="translate(15,28)"/>
<path d="M0 0 C0.845625 0.309375 1.69125 0.61875 2.5625 0.9375 C6.0497854 2.01538821 9.38177535 2.56581304 13 3 C10.78563894 5.21436106 10.07216944 5.74398588 7 6 C3.8125 4.75 3.8125 4.75 1 3 C0.67 2.01 0.34 1.02 0 0 Z " fill="#B6B8B8" transform="translate(31,83)"/>
<path d="M0 0 C3.96 0 7.92 0 12 0 C12 2.31 12 4.62 12 7 C11.690625 6.360625 11.38125 5.72125 11.0625 5.0625 C10.1654837 3.06389179 10.1654837 3.06389179 9 2 C7.48530552 1.76807135 5.96245438 1.58784762 4.4375 1.4375 C3.61121094 1.35371094 2.78492188 1.26992188 1.93359375 1.18359375 C1.29550781 1.12300781 0.65742187 1.06242187 0 1 C0 0.67 0 0.34 0 0 Z " fill="#939595" transform="translate(46,62)"/>
<path d="M0 0 C0.33 0.66 0.66 1.32 1 2 C0.401875 2.268125 -0.19625 2.53625 -0.8125 2.8125 C-2.97224808 3.98493467 -4.35790256 5.19369282 -6 7 C-6.33 6.34 -6.66 5.68 -7 5 C-6.67 4.01 -6.34 3.02 -6 2 C-2.9375 0.8125 -2.9375 0.8125 0 0 Z " fill="#757879" transform="translate(12,34)"/>
<path d="M0 0 C3.36591866 1.44253657 5.51047079 3.33264727 8 6 C5.125 5.8125 5.125 5.8125 2 5 C0.625 2.4375 0.625 2.4375 0 0 Z " fill="#8B8C8E" transform="translate(75,25)"/>
<path d="M0 0 C0.33 1.32 0.66 2.64 1 4 C1.66 4 2.32 4 3 4 C2.67 4.99 2.34 5.98 2 7 C2 6.34 2 5.68 2 5 C1.34 5 0.68 5 0 5 C-0.66 6.32 -1.32 7.64 -2 9 C-2.66 8.67 -3.32 8.34 -4 8 C-3.2884375 7.13375 -3.2884375 7.13375 -2.5625 6.25 C-1.0515133 4.07417916 -0.45963849 2.57397552 0 0 Z " fill="#C9CCCD" transform="translate(58,65)"/>
<path d="M0 0 C-3.08888522 2.05925681 -3.70935927 2.2390374 -7.1875 2.125 C-9.0746875 2.063125 -9.0746875 2.063125 -11 2 C-7.00042393 -0.06874624 -4.43559483 -1.37656391 0 0 Z " fill="#C6C8C9" transform="translate(37,23)"/>
<path d="M0 0 C0.98120464 3.05263664 0.98120464 4.94736336 0 8 C-0.33 8 -0.66 8 -1 8 C-1.125 2.25 -1.125 2.25 0 0 Z " fill="#EEF2F3" transform="translate(10,59)"/>
<path d="M0 0 C0.33 0 0.66 0 1 0 C1 1.98 1 3.96 1 6 C0.01 5.67 -0.98 5.34 -2 5 C-1.34 3.35 -0.68 1.7 0 0 Z " fill="#EFF3F4" transform="translate(97,63)"/>
<path d="M0 0 C0.66 0.33 1.32 0.66 2 1 C2 1.66 2 2.32 2 3 C2.66 3.66 3.32 4.32 4 5 C2.68 5 1.36 5 0 5 C-0.33 4.01 -0.66 3.02 -1 2 C-0.67 1.34 -0.34 0.68 0 0 Z " fill="#EFF1F1" transform="translate(94,30)"/>
<path d="M0 0 C2 3 2 3 2 5 C1.01 4.67 0.02 4.34 -1 4 C-0.67 2.68 -0.34 1.36 0 0 Z " fill="#EEF3F3" transform="translate(56,74)"/>
<path d="M0 0 C0.33 0.99 0.66 1.98 1 3 C1.99 3.33 2.98 3.66 4 4 C2.35 3.67 0.7 3.34 -1 3 C-0.67 2.01 -0.34 1.02 0 0 Z " fill="#EFF3F4" transform="translate(26,85)"/>
<path d="M0 0 C0.66 0 1.32 0 2 0 C2.33 1.32 2.66 2.64 3 4 C2.34 4 1.68 4 1 4 C0.67 2.68 0.34 1.36 0 0 Z " fill="#EFF3F4" transform="translate(92,60)"/>
<path d="M0 0 C0.66 0 1.32 0 2 0 C1.67 1.32 1.34 2.64 1 4 C0.67 2.68 0.34 1.36 0 0 Z " fill="#EFF3F4" transform="translate(0,44)"/>
<path d="M0 0 C0.33 0.99 0.66 1.98 1 3 C0.01 3 -0.98 3 -2 3 C-2 2.34 -2 1.68 -2 1 C-1.34 0.67 -0.68 0.34 0 0 Z " fill="#EFF3F3" transform="translate(18,22)"/>
<path d="M0 0 C0.66 0.33 1.32 0.66 2 1 C1.01 1.99 0.02 2.98 -1 4 C-0.67 2.68 -0.34 1.36 0 0 Z " fill="#EEF0F1" transform="translate(60,60)"/>
<path d="M0 0 C0.33 1.32 0.66 2.64 1 4 C0.34 4 -0.32 4 -1 4 C-0.67 2.68 -0.34 1.36 0 0 Z " fill="#EFF2F3" transform="translate(84,20)"/>
<path d="M0 0 C0 0.99 0 1.98 0 3 C-0.66 2.34 -1.32 1.68 -2 1 C-1.34 0.67 -0.68 0.34 0 0 Z " fill="#EFF3F4" transform="translate(61,73)"/>
<path d="M0 0 C0.99 0.33 1.98 0.66 3 1 C2.67 1.66 2.34 2.32 2 3 C1.34 2.01 0.68 1.02 0 0 Z " fill="#EFF3F4" transform="translate(19,19)"/>
<path d="M0 0 C0 3 0 3 0 3 Z " fill="#EFF3F3" transform="translate(30,84)"/>
<path d="M0 0 C0.99 0.495 0.99 0.495 2 1 C1.67 1.66 1.34 2.32 1 3 C0.67 2.01 0.34 1.02 0 0 Z " fill="#EFF2F1" transform="translate(41,76)"/>
<path d="M0 0 C0.66 0 1.32 0 2 0 C2 0.66 2 1.32 2 2 C1.34 2 0.68 2 0 2 C0 1.34 0 0.68 0 0 Z " fill="#EFF3F4" transform="translate(5,65)"/>
<path d="M0 0 C0.99 0 1.98 0 3 0 C2.67 0.66 2.34 1.32 2 2 C1.34 1.34 0.68 0.68 0 0 Z " fill="#EEF1F0" transform="translate(48,28)"/>
<path d="M0 0 C0.66 0 1.32 0 2 0 C2 0.66 2 1.32 2 2 C1.34 2 0.68 2 0 2 C0 1.34 0 0.68 0 0 Z " fill="#F0F5F6" transform="translate(93,19)"/>
<path d="M0 0 C0.66 0 1.32 0 2 0 C1.67 0.66 1.34 1.32 1 2 C0.67 1.34 0.34 0.68 0 0 Z " fill="#EEF1F2" transform="translate(60,78)"/>
<path d="M0 0 C0.99 0.495 0.99 0.495 2 1 C1.01 1.495 1.01 1.495 0 2 C0 1.34 0 0.68 0 0 Z " fill="#F0F4F5" transform="translate(90,67)"/>
<path d="M0 0 C0.99 0.495 0.99 0.495 2 1 C1.01 1.495 1.01 1.495 0 2 C0 1.34 0 0.68 0 0 Z " fill="#F0F4F4" transform="translate(92,65)"/>
<path d="M0 0 C0.66 0.66 1.32 1.32 2 2 C1.34 2 0.68 2 0 2 C0 1.34 0 0.68 0 0 Z " fill="#F0F3F4" transform="translate(6,59)"/>
<path d="M0 0 C0.99 0.495 0.99 0.495 2 1 C1.01 1.495 1.01 1.495 0 2 C0 1.34 0 0.68 0 0 Z " fill="#EEF2F3" transform="translate(5,30)"/>
<path d="M0 0 C0.66 0 1.32 0 2 0 C1.67 0.66 1.34 1.32 1 2 C0.67 1.34 0.34 0.68 0 0 Z " fill="#EFF3F4" transform="translate(9,29)"/>
<path d="M0 0 C3 1 3 1 3 1 Z " fill="#EFF1F0" transform="translate(35,20)"/>
<path d="M0 0 C3 1 3 1 3 1 Z " fill="#EFF2F1" transform="translate(55,19)"/>
<path d="M0 0 C3 1 3 1 3 1 Z " fill="#EFF2F2" transform="translate(40,19)"/>
<path d="M0 0 C0.66 0 1.32 0 2 0 C1.67 0.66 1.34 1.32 1 2 C0.67 1.34 0.34 0.68 0 0 Z " fill="#EFF2F3" transform="translate(23,19)"/>
<path d="" fill="#EFF2F3" transform="translate(0,0)"/>
<path d="M0 0 C2 1 2 1 2 1 Z " fill="#EEF0F0" transform="translate(73,78)"/>
<path d="" fill="#F0F3F4" transform="translate(0,0)"/>
<path d="" fill="#EEF0F1" transform="translate(0,0)"/>
<path d="" fill="#F0F4F4" transform="translate(0,0)"/>
<path d="M0 0 C2 1 2 1 2 1 Z " fill="#EFF4F2" transform="translate(38,69)"/>
<path d="M0 0 C2 1 2 1 2 1 Z " fill="#F0F1F3" transform="translate(80,68)"/>
<path d="M0 0 C2 1 2 1 2 1 Z " fill="#EFF1F1" transform="translate(21,68)"/>
<path d="M0 0 C2 1 2 1 2 1 Z " fill="#F0F2F3" transform="translate(61,67)"/>
<path d="M0 0 C2 1 2 1 2 1 Z " fill="#EFF3F2" transform="translate(38,64)"/>
<path d="" fill="#F0F2F1" transform="translate(0,0)"/>
<path d="" fill="#EFF3F1" transform="translate(0,0)"/>
<path d="" fill="#EFF0F2" transform="translate(0,0)"/>
<path d="" fill="#EFF2F1" transform="translate(0,0)"/>
<path d="" fill="#EFF3F4" transform="translate(0,0)"/>
<path d="" fill="#EFF1F1" transform="translate(0,0)"/>
<path d="M0 0 C2 1 2 1 2 1 Z " fill="#F0F2F3" transform="translate(79,19)"/>
<path d="M0 0 C2 1 2 1 2 1 Z " fill="#EFF0F0" transform="translate(50,19)"/>
<path d="M0 0 C2 1 2 1 2 1 Z " fill="#EFF1F3" transform="translate(30,19)"/>
<path d="M0 0 C2 1 2 1 2 1 Z " fill="#EFF3F4" transform="translate(16,19)"/>
<path d="" fill="#F0F2F4" transform="translate(0,0)"/>
<path d="" fill="#F0F2F4" transform="translate(0,0)"/>
<path d="" fill="#F0F2F3" transform="translate(0,0)"/>
<path d="" fill="#F0F4F5" transform="translate(0,0)"/>
<path d="" fill="#F0F3F4" transform="translate(0,0)"/>
<path d="" fill="#F0F2F3" transform="translate(0,0)"/>
<path d="" fill="#F0F4F4" transform="translate(0,0)"/>
<path d="" fill="#EFF3F3" transform="translate(0,0)"/>
<path d="" fill="#F0F4F5" transform="translate(0,0)"/>
<path d="" fill="#F0F4F5" transform="translate(0,0)"/>
<path d="" fill="#F0F4F4" transform="translate(0,0)"/>
<path d="" fill="#F0F4F5" transform="translate(0,0)"/>
<path d="" fill="#F0F2F3" transform="translate(0,0)"/>
<path d="" fill="#F0F5F3" transform="translate(0,0)"/>
<path d="" fill="#F0F0F0" transform="translate(0,0)"/>
<path d="" fill="#F0F6F6" transform="translate(0,0)"/>
<path d="" fill="#F0F3F3" transform="translate(0,0)"/>
<path d="" fill="#F0F3F4" transform="translate(0,0)"/>
<path d="" fill="#EFF3F3" transform="translate(0,0)"/>
<path d="" fill="#F0F4F5" transform="translate(0,0)"/>
<path d="" fill="#F0F4F5" transform="translate(0,0)"/>
<path d="" fill="#F0F1F3" transform="translate(0,0)"/>
<path d="" fill="#F0F2F1" transform="translate(0,0)"/>
<path d="" fill="#EFF3F3" transform="translate(0,0)"/>
</svg>
